<?xml version="1.0" encoding="UTF-8" standalone="no"?>
<!DOCTYPE svg PUBLIC "-//W3C//DTD SVG 1.1//EN" "http://www.w3.org/Graphics/SVG/1.1/DTD/svg11.dtd">
<svg width="100%" height="100%" viewBox="0 0 1166 418" version="1.1" xmlns="http://www.w3.org/2000/svg" xmlns:xlink="http://www.w3.org/1999/xlink" xml:space="preserve" xmlns:serif="http://www.serif.com/" style="fill-rule:evenodd;clip-rule:evenodd;">
    <path d="M963.883,14.176L963.998,42.919L42.917,42.919L42.917,374.304L1122.53,374.304L1122.53,42.919L1041.95,42.919L1041.95,14.176L1139.93,14.176L1140.82,14.21L1141.7,14.315L1142.58,14.488L1143.43,14.729L1144.27,15.038L1145.08,15.409L1145.85,15.846L1146.59,16.339L1147.29,16.892L1147.95,17.495L1148.55,18.15L1149.1,18.848L1149.6,19.59L1150.03,20.367L1150.4,21.175L1150.71,22.008L1150.95,22.867L1151.13,23.74L1151.23,24.625L1151.27,25.515L1151.27,391.708L1151.23,392.598L1151.13,393.483L1150.95,394.356L1150.71,395.212L1150.4,396.048L1150.03,396.856L1149.6,397.633L1149.1,398.373L1148.55,399.073L1147.95,399.725L1147.29,400.329L1146.59,400.881L1145.85,401.374L1145.08,401.811L1144.27,402.182L1143.43,402.491L1142.58,402.732L1141.7,402.908L1140.82,403.01L1139.93,403.047L25.515,403.047L24.625,403.01L23.74,402.908L22.867,402.732L22.008,402.491L21.175,402.182L20.367,401.811L19.59,401.374L18.848,400.881L18.15,400.329L17.495,399.725L16.892,399.073L16.339,398.373L15.846,397.633L15.409,396.856L15.038,396.048L14.729,395.212L14.488,394.356L14.315,393.483L14.21,392.598L14.173,391.708L14.176,25.515L14.21,24.625L14.315,23.74L14.488,22.867L14.729,22.008L15.038,21.175L15.409,20.367L15.846,19.59L16.339,18.848L16.892,18.15L17.495,17.495L18.15,16.892L18.848,16.339L19.59,15.846L20.367,15.409L21.175,15.038L22.008,14.729L22.867,14.488L23.74,14.315L24.625,14.21L25.515,14.173L963.883,14.176Z" style="fill:none;fill-rule:nonzero;stroke:black;stroke-width:0.4px;"/>
    <path d="M26.461,382.258L24.582,383.216L23.088,384.71L22.13,386.589L21.801,388.675L22.13,390.759L23.088,392.641L24.582,394.132L26.461,395.09L28.548,395.422L30.631,395.09L32.511,394.132L34.004,392.641L34.963,390.759L35.294,388.675L34.963,386.589L34.004,384.71L32.511,383.216L30.631,382.258L28.548,381.929L26.461,382.258Z" style="fill:none;fill-rule:nonzero;stroke:black;stroke-width:0.4px;"/>
    <path d="M303.548,382.258L301.669,383.216L300.175,384.71L299.217,386.589L298.888,388.675L299.217,390.759L300.175,392.641L301.669,394.132L303.548,395.09L305.634,395.422L307.718,395.09L309.6,394.132L311.091,392.641L312.049,390.759L312.381,388.675L312.049,386.589L311.091,384.71L309.6,383.216L307.718,382.258L305.634,381.929L303.548,382.258Z" style="fill:none;fill-rule:nonzero;stroke:black;stroke-width:0.4px;"/>
    <path d="M580.637,382.258L578.755,383.216L577.264,384.71L576.303,386.589L575.974,388.675L576.303,390.759L577.264,392.641L578.755,394.132L580.637,395.09L582.721,395.422L584.804,395.09L586.687,394.132L588.178,392.641L589.139,390.759L589.467,388.675L589.139,386.589L588.178,384.71L586.687,383.216L584.804,382.258L582.721,381.929L580.637,382.258Z" style="fill:none;fill-rule:nonzero;stroke:black;stroke-width:0.4px;"/>
    <path d="M857.724,382.258L855.842,383.216L854.351,384.71L853.393,386.589L853.061,388.675L853.393,390.759L854.351,392.641L855.842,394.132L857.724,395.09L859.808,395.422L861.894,395.09L863.773,394.132L865.267,392.641L866.225,390.759L866.554,388.675L866.225,386.589L865.267,384.71L863.773,383.216L861.894,382.258L859.808,381.929L857.724,382.258Z" style="fill:none;fill-rule:nonzero;stroke:black;stroke-width:0.4px;"/>
    <path d="M1134.81,382.258L1132.93,383.216L1131.44,384.71L1130.48,386.589L1130.15,388.675L1130.48,390.759L1131.44,392.641L1132.93,394.132L1134.81,395.09L1136.9,395.422L1138.98,395.09L1140.86,394.132L1142.35,392.641L1143.31,390.759L1143.64,388.675L1143.31,386.589L1142.35,384.71L1140.86,383.216L1138.98,382.258L1136.9,381.929L1134.81,382.258Z" style="fill:none;fill-rule:nonzero;stroke:black;stroke-width:0.4px;"/>
    <path d="M1134.81,22.13L1132.93,23.088L1131.44,24.582L1130.48,26.461L1130.15,28.548L1130.48,30.631L1131.44,32.511L1132.93,34.004L1134.81,34.963L1136.9,35.294L1138.98,34.963L1140.86,34.004L1142.35,32.511L1143.31,30.631L1143.64,28.548L1143.31,26.461L1142.35,24.582L1140.86,23.088L1138.98,22.13L1136.9,21.798L1134.81,22.13Z" style="fill:none;fill-rule:nonzero;stroke:black;stroke-width:0.4px;"/>
    <path d="M857.724,22.13L855.842,23.088L854.351,24.582L853.393,26.461L853.061,28.548L853.393,30.631L854.351,32.511L855.842,34.004L857.724,34.963L859.808,35.294L861.894,34.963L863.773,34.004L865.267,32.511L866.225,30.631L866.554,28.548L866.225,26.461L865.267,24.582L863.773,23.088L861.894,22.13L859.808,21.798L857.724,22.13Z" style="fill:none;fill-rule:nonzero;stroke:black;stroke-width:0.4px;"/>
    <path d="M580.637,22.13L578.755,23.088L577.264,24.582L576.303,26.461L575.974,28.548L576.303,30.631L577.264,32.511L578.755,34.004L580.637,34.963L582.721,35.294L584.804,34.963L586.687,34.004L588.178,32.511L589.139,30.631L589.467,28.548L589.139,26.461L588.178,24.582L586.687,23.088L584.804,22.13L582.721,21.798L580.637,22.13Z" style="fill:none;fill-rule:nonzero;stroke:black;stroke-width:0.4px;"/>
    <path d="M303.548,22.13L301.669,23.088L300.175,24.582L299.217,26.461L298.888,28.548L299.217,30.631L300.175,32.511L301.669,34.004L303.548,34.963L305.634,35.294L307.718,34.963L309.6,34.004L311.091,32.511L312.049,30.631L312.381,28.548L312.049,26.461L311.091,24.582L309.6,23.088L307.718,22.13L305.634,21.798L303.548,22.13Z" style="fill:none;fill-rule:nonzero;stroke:black;stroke-width:0.4px;"/>
    <path d="M26.461,22.13L24.582,23.088L23.088,24.582L22.13,26.461L21.801,28.545L22.13,30.631L23.088,32.511L24.582,34.004L26.461,34.963L28.548,35.291L30.631,34.963L32.511,34.004L34.004,32.511L34.963,30.631L35.294,28.545L34.963,26.461L34.004,24.582L32.511,23.088L30.631,22.13L28.548,21.798L26.461,22.13Z" style="fill:none;fill-rule:nonzero;stroke:black;stroke-width:0.4px;"/>
</svg>
