<?xml version="1.0"?>
<!-- Generated by SVGo -->
<svg width="411.142mm" height="147.186mm"
     viewBox="0.000 0.000 411.142 147.186"
     xmlns="http://www.w3.org/2000/svg" 
     xmlns:xlink="http://www.w3.org/1999/xlink">
<polygon points="402.142,5.001 402.455,5.013 402.767,5.050 403.075,5.111 403.378,5.196 403.672,5.305 403.957,5.436 404.231,5.590 404.493,5.764 404.739,5.959 404.970,6.172 405.183,6.403 405.378,6.649 405.552,6.911 405.706,7.185 405.837,7.470 405.946,7.764 406.031,8.067 406.092,8.375 406.129,8.687 406.142,9.001 406.142,138.186 406.129,138.500 406.092,138.812 406.031,139.120 405.946,139.422 405.837,139.717 405.706,140.002 405.552,140.276 405.378,140.537 405.183,140.784 404.970,141.014 404.739,141.227 404.493,141.422 404.231,141.596 403.957,141.750 403.672,141.881 403.378,141.990 403.075,142.075 402.767,142.137 402.455,142.173 402.142,142.186 9.001,142.186 8.687,142.173 8.375,142.137 8.067,142.075 7.764,141.990 7.470,141.881 7.185,141.750 6.911,141.596 6.649,141.422 6.403,141.227 6.172,141.014 5.959,140.784 5.764,140.537 5.590,140.276 5.436,140.002 5.305,139.717 5.196,139.422 5.111,139.120 5.050,138.812 5.013,138.500 5.000,138.186 5.001,9.001 5.013,8.687 5.050,8.375 5.111,8.067 5.196,7.764 5.305,7.470 5.436,7.185 5.590,6.911 5.764,6.649 5.959,6.403 6.172,6.172 6.403,5.959 6.649,5.764 6.911,5.590 7.185,5.436 7.470,5.305 7.764,5.196 8.067,5.111 8.375,5.050 8.687,5.013 9.001,5.000" style="fill:none;stroke-width:0.050000mm;stroke:black"/>
<polygon points="9.335,134.852 8.672,135.190 8.145,135.717 7.807,136.380 7.691,137.116 7.807,137.851 8.145,138.515 8.672,139.041 9.335,139.379 10.071,139.496 10.806,139.379 11.469,139.041 11.996,138.515 12.334,137.851 12.451,137.116 12.334,136.380 11.996,135.717 11.469,135.190 10.806,134.852 10.071,134.736" style="fill:none;stroke-width:0.050000mm;stroke:black"/>
<polygon points="107.085,134.852 106.422,135.190 105.895,135.717 105.557,136.380 105.441,137.116 105.557,137.851 105.895,138.515 106.422,139.041 107.085,139.379 107.821,139.496 108.556,139.379 109.220,139.041 109.746,138.515 110.084,137.851 110.201,137.116 110.084,136.380 109.746,135.717 109.220,135.190 108.556,134.852 107.821,134.736" style="fill:none;stroke-width:0.050000mm;stroke:black"/>
<polygon points="204.836,134.852 204.172,135.190 203.646,135.717 203.307,136.380 203.191,137.116 203.307,137.851 203.646,138.515 204.172,139.041 204.836,139.379 205.571,139.496 206.306,139.379 206.970,139.041 207.496,138.515 207.835,137.851 207.951,137.116 207.835,136.380 207.496,135.717 206.970,135.190 206.306,134.852 205.571,134.736" style="fill:none;stroke-width:0.050000mm;stroke:black"/>
<polygon points="302.586,134.852 301.922,135.190 301.396,135.717 301.058,136.380 300.941,137.116 301.058,137.851 301.396,138.515 301.922,139.041 302.586,139.379 303.321,139.496 304.057,139.379 304.720,139.041 305.247,138.515 305.585,137.851 305.701,137.116 305.585,136.380 305.247,135.717 304.720,135.190 304.057,134.852 303.321,134.736" style="fill:none;stroke-width:0.050000mm;stroke:black"/>
<polygon points="400.336,134.852 399.673,135.190 399.146,135.717 398.808,136.380 398.692,137.116 398.808,137.851 399.146,138.515 399.673,139.041 400.336,139.379 401.072,139.496 401.807,139.379 402.470,139.041 402.997,138.515 403.335,137.851 403.452,137.116 403.335,136.380 402.997,135.717 402.470,135.190 401.807,134.852 401.072,134.736" style="fill:none;stroke-width:0.050000mm;stroke:black"/>
<polygon points="15.140,15.141 15.140,132.046 396.002,132.046 396.002,15.141" style="fill:none;stroke-width:0.050000mm;stroke:black"/>
<polygon points="400.336,7.807 399.673,8.145 399.146,8.672 398.808,9.335 398.692,10.071 398.808,10.806 399.146,11.469 399.673,11.996 400.336,12.334 401.072,12.451 401.807,12.334 402.470,11.996 402.997,11.469 403.335,10.806 403.452,10.071 403.335,9.335 402.997,8.672 402.470,8.145 401.807,7.807 401.072,7.690" style="fill:none;stroke-width:0.050000mm;stroke:black"/>
<polygon points="302.586,7.807 301.922,8.145 301.396,8.672 301.058,9.335 300.941,10.071 301.058,10.806 301.396,11.469 301.922,11.996 302.586,12.334 303.321,12.451 304.057,12.334 304.720,11.996 305.247,11.469 305.585,10.806 305.701,10.071 305.585,9.335 305.247,8.672 304.720,8.145 304.057,7.807 303.321,7.690" style="fill:none;stroke-width:0.050000mm;stroke:black"/>
<polygon points="204.836,7.807 204.172,8.145 203.646,8.672 203.307,9.335 203.191,10.071 203.307,10.806 203.646,11.469 204.172,11.996 204.836,12.334 205.571,12.451 206.306,12.334 206.970,11.996 207.496,11.469 207.835,10.806 207.951,10.071 207.835,9.335 207.496,8.672 206.970,8.145 206.306,7.807 205.571,7.690" style="fill:none;stroke-width:0.050000mm;stroke:black"/>
<polygon points="107.085,7.807 106.422,8.145 105.895,8.672 105.557,9.335 105.441,10.071 105.557,10.806 105.895,11.469 106.422,11.996 107.085,12.334 107.821,12.451 108.556,12.334 109.220,11.996 109.746,11.469 110.084,10.806 110.201,10.071 110.084,9.335 109.746,8.672 109.220,8.145 108.556,7.807 107.821,7.690" style="fill:none;stroke-width:0.050000mm;stroke:black"/>
<polygon points="9.335,7.807 8.672,8.145 8.145,8.672 7.807,9.335 7.691,10.070 7.807,10.806 8.145,11.469 8.672,11.996 9.335,12.334 10.071,12.450 10.806,12.334 11.469,11.996 11.996,11.469 12.334,10.806 12.451,10.070 12.334,9.335 11.996,8.672 11.469,8.145 10.806,7.807 10.071,7.690" style="fill:none;stroke-width:0.050000mm;stroke:black"/>
</svg>
