<?xml version="1.0"?>
<!-- Generated by SVGo -->
<svg width="411.142mm" height="147.186mm"
     viewBox="0.000 0.000 411.142 147.186"
     xmlns="http://www.w3.org/2000/svg" 
     xmlns:xlink="http://www.w3.org/1999/xlink">
<polygon points="402.142,5.001 402.455,5.013 402.767,5.050 403.075,5.111 403.378,5.196 403.672,5.305 403.957,5.436 404.231,5.590 404.493,5.764 404.739,5.959 404.970,6.172 405.183,6.403 405.378,6.649 405.552,6.911 405.706,7.185 405.837,7.470 405.946,7.764 406.031,8.067 406.092,8.375 406.129,8.687 406.142,9.001 406.142,138.186 406.129,138.500 406.092,138.812 406.031,139.120 405.946,139.422 405.837,139.717 405.706,140.002 405.552,140.276 405.378,140.537 405.183,140.784 404.970,141.014 404.739,141.227 404.493,141.422 404.231,141.596 403.957,141.750 403.672,141.881 403.378,141.990 403.075,142.075 402.767,142.137 402.455,142.173 402.142,142.186 9.001,142.186 8.687,142.173 8.375,142.137 8.067,142.075 7.764,141.990 7.470,141.881 7.185,141.750 6.911,141.596 6.649,141.422 6.403,141.227 6.172,141.014 5.959,140.784 5.764,140.537 5.590,140.276 5.436,140.002 5.305,139.717 5.196,139.422 5.111,139.120 5.050,138.812 5.013,138.500 5.000,138.186 5.001,9.001 5.013,8.687 5.050,8.375 5.111,8.067 5.196,7.764 5.305,7.470 5.436,7.185 5.590,6.911 5.764,6.649 5.959,6.403 6.172,6.172 6.403,5.959 6.649,5.764 6.911,5.590 7.185,5.436 7.470,5.305 7.764,5.196 8.067,5.111 8.375,5.050 8.687,5.013 9.001,5.000" style="fill:none;stroke-width:0.050000mm;stroke:black"/>
<polygon points="9.335,134.852 8.672,135.190 8.145,135.717 7.807,136.380 7.691,137.116 7.807,137.851 8.145,138.515 8.672,139.041 9.335,139.379 10.071,139.496 10.806,139.379 11.469,139.041 11.996,138.515 12.334,137.851 12.451,137.116 12.334,136.380 11.996,135.717 11.469,135.190 10.806,134.852 10.071,134.736" style="fill:none;stroke-width:0.050000mm;stroke:black"/>
<polygon points="107.085,134.852 106.422,135.190 105.895,135.717 105.557,136.380 105.441,137.116 105.557,137.851 105.895,138.515 106.422,139.041 107.085,139.379 107.821,139.496 108.556,139.379 109.220,139.041 109.746,138.515 110.084,137.851 110.201,137.116 110.084,136.380 109.746,135.717 109.220,135.190 108.556,134.852 107.821,134.736" style="fill:none;stroke-width:0.050000mm;stroke:black"/>
<polygon points="204.836,134.852 204.172,135.190 203.646,135.717 203.307,136.380 203.191,137.116 203.307,137.851 203.646,138.515 204.172,139.041 204.836,139.379 205.571,139.496 206.306,139.379 206.970,139.041 207.496,138.515 207.835,137.851 207.951,137.116 207.835,136.380 207.496,135.717 206.970,135.190 206.306,134.852 205.571,134.736" style="fill:none;stroke-width:0.050000mm;stroke:black"/>
<polygon points="302.586,134.852 301.922,135.190 301.396,135.717 301.058,136.380 300.941,137.116 301.058,137.851 301.396,138.515 301.922,139.041 302.586,139.379 303.321,139.496 304.057,139.379 304.720,139.041 305.247,138.515 305.585,137.851 305.701,137.116 305.585,136.380 305.247,135.717 304.720,135.190 304.057,134.852 303.321,134.736" style="fill:none;stroke-width:0.050000mm;stroke:black"/>
<polygon points="400.336,134.852 399.673,135.190 399.146,135.717 398.808,136.380 398.692,137.116 398.808,137.851 399.146,138.515 399.673,139.041 400.336,139.379 401.072,139.496 401.807,139.379 402.470,139.041 402.997,138.515 403.335,137.851 403.452,137.116 403.335,136.380 402.997,135.717 402.470,135.190 401.807,134.852 401.072,134.736" style="fill:none;stroke-width:0.050000mm;stroke:black"/>
<polygon points="170.066,112.915 170.066,113.915 169.266,113.915 169.266,116.876 170.066,116.876 170.066,117.616 168.401,117.616 168.401,114.386 166.676,114.386 166.676,113.466 163.516,113.466 163.516,114.386 161.791,114.386 161.791,117.616 160.966,117.616 160.966,120.276 161.791,120.276 161.791,126.546 163.516,126.546 163.516,127.526 166.676,127.526 166.676,126.546 168.401,126.546 168.401,122.076 170.066,122.076 170.066,122.816 169.266,122.816 169.266,125.776 170.066,125.776 170.066,126.776 183.926,126.776 183.926,125.776 184.726,125.776 184.726,122.816 183.926,122.816 183.926,122.076 185.591,122.076 185.591,126.546 187.316,126.546 187.316,127.526 190.476,127.526 190.476,126.546 192.201,126.546 192.201,120.276 193.026,120.276 193.026,117.616 192.201,117.616 192.201,114.386 190.476,114.386 190.476,113.466 187.316,113.466 187.316,114.386 185.591,114.386 185.591,117.616 183.926,117.616 183.926,116.876 184.726,116.876 184.726,113.915 183.926,113.915 183.926,112.915" style="fill:none;stroke-width:0.050000mm;stroke:black"/>
<polygon points="379.616,112.916 379.616,113.916 378.816,113.916 378.816,116.876 379.616,116.876 379.616,122.816 378.816,122.816 378.816,125.776 379.616,125.776 379.616,126.776 393.476,126.776 393.476,125.776 394.276,125.776 394.276,122.816 393.476,122.816 393.476,116.876 394.276,116.876 394.276,113.916 393.476,113.916 393.476,112.916" style="fill:none;stroke-width:0.050000mm;stroke:black"/>
<polygon points="360.566,112.916 360.566,113.916 359.766,113.916 359.766,116.876 360.566,116.876 360.566,122.816 359.766,122.816 359.766,125.776 360.566,125.776 360.566,126.776 374.426,126.776 374.426,125.776 375.226,125.776 375.226,122.816 374.426,122.816 374.426,116.876 375.226,116.876 375.226,113.916 374.426,113.916 374.426,112.916" style="fill:none;stroke-width:0.050000mm;stroke:black"/>
<polygon points="341.516,112.916 341.516,113.916 340.716,113.916 340.716,116.876 341.516,116.876 341.516,122.816 340.716,122.816 340.716,125.776 341.516,125.776 341.516,126.776 355.376,126.776 355.376,125.776 356.176,125.776 356.176,122.816 355.376,122.816 355.376,116.876 356.176,116.876 356.176,113.916 355.376,113.916 355.376,112.916" style="fill:none;stroke-width:0.050000mm;stroke:black"/>
<polygon points="92.332,111.210 91.544,111.071 91.030,113.986 91.818,114.125 90.786,119.975 89.998,119.836 89.484,122.751 90.272,122.890 90.099,123.875 103.748,126.281 103.922,125.297 104.710,125.436 105.224,122.521 104.436,122.382 105.467,116.532 106.255,116.671 106.769,113.756 105.981,113.617 106.155,112.632 92.505,110.225" style="fill:none;stroke-width:0.050000mm;stroke:black"/>
<polygon points="247.834,112.608 248.008,113.593 247.220,113.731 247.734,116.646 248.522,116.508 249.553,122.357 248.765,122.496 249.279,125.411 250.067,125.272 250.241,126.257 263.890,123.850 263.717,122.866 264.504,122.727 263.990,119.812 263.203,119.951 262.171,114.101 262.959,113.962 262.445,111.047 261.657,111.186 261.483,110.201" style="fill:none;stroke-width:0.050000mm;stroke:black"/>
<polygon points="68.881,107.075 68.093,106.936 67.579,109.851 68.367,109.990 67.336,115.840 66.548,115.701 66.034,118.616 66.822,118.755 66.648,119.740 80.297,122.146 80.471,121.162 81.259,121.301 81.773,118.386 80.985,118.247 82.017,112.397 82.804,112.536 83.318,109.621 82.531,109.482 82.704,108.497 69.055,106.090" style="fill:none;stroke-width:0.050000mm;stroke:black"/>
<polygon points="271.285,108.473 271.458,109.458 270.671,109.596 271.185,112.511 271.972,112.373 273.004,118.222 272.216,118.361 272.730,121.276 273.518,121.137 273.691,122.122 287.341,119.715 287.167,118.731 287.955,118.592 287.441,115.677 286.653,115.816 285.622,109.966 286.410,109.827 285.896,106.912 285.108,107.051 284.934,106.066" style="fill:none;stroke-width:0.050000mm;stroke:black"/>
<polygon points="118.677,98.930 117.889,98.791 117.375,101.706 118.163,101.845 117.132,107.694 116.344,107.555 115.830,110.470 116.618,110.609 116.444,111.594 130.093,114.001 130.265,113.016 131.055,113.155 131.569,110.240 130.781,110.101 131.812,104.251 132.600,104.390 133.114,101.475 132.326,101.336 132.500,100.352 118.851,97.945" style="fill:none;stroke-width:0.050000mm;stroke:black"/>
<polygon points="221.489,100.327 221.662,101.312 220.875,101.451 221.389,104.366 222.176,104.227 223.208,110.077 222.420,110.216 222.934,113.131 223.722,112.992 223.896,113.977 237.545,111.570 237.371,110.585 238.159,110.446 237.645,107.531 236.857,107.670 235.826,101.820 236.614,101.681 236.100,98.766 235.312,98.905 235.138,97.920" style="fill:none;stroke-width:0.050000mm;stroke:black"/>
<polygon points="100.330,93.276 99.542,93.138 99.028,96.053 99.816,96.192 98.784,102.041 97.997,101.902 97.483,104.817 98.270,104.956 98.097,105.941 111.746,108.348 111.920,107.363 112.708,107.502 113.222,104.587 112.434,104.448 113.465,98.598 114.253,98.737 114.767,95.822 113.979,95.683 114.153,94.698 100.504,92.292" style="fill:none;stroke-width:0.050000mm;stroke:black"/>
<polygon points="239.836,94.674 240.009,95.659 239.222,95.798 239.736,98.713 240.523,98.574 241.555,104.424 240.767,104.563 241.281,107.478 242.069,107.339 242.243,108.324 255.892,105.917 255.718,104.932 256.506,104.793 255.992,101.878 255.204,102.017 254.173,96.167 254.961,96.028 254.447,93.113 253.659,93.252 253.485,92.267" style="fill:none;stroke-width:0.050000mm;stroke:black"/>
<polygon points="360.566,93.866 360.566,94.866 359.766,94.866 359.766,97.826 360.566,97.826 360.566,103.766 359.766,103.766 359.766,106.726 360.566,106.726 360.566,107.726 374.426,107.726 374.426,106.726 375.226,106.726 375.226,103.766 374.426,103.766 374.426,97.826 375.226,97.826 375.226,94.866 374.426,94.866 374.426,93.866" style="fill:none;stroke-width:0.050000mm;stroke:black"/>
<polygon points="81.569,89.968 80.782,89.830 80.268,92.745 81.055,92.884 80.024,98.733 79.236,98.594 78.722,101.509 79.510,101.648 79.336,102.633 92.986,105.040 93.159,104.055 93.947,104.194 94.461,101.279 93.673,101.140 94.705,95.290 95.493,95.429 96.007,92.514 95.219,92.375 95.392,91.390 81.743,88.984" style="fill:none;stroke-width:0.050000mm;stroke:black"/>
<polygon points="258.596,91.366 258.770,92.351 257.982,92.490 258.496,95.405 259.284,95.266 260.316,101.116 259.528,101.255 260.042,104.170 260.830,104.031 261.003,105.016 274.653,102.609 274.479,101.624 275.267,101.485 274.753,98.570 273.965,98.709 272.934,92.859 273.721,92.720 273.207,89.805 272.420,89.944 272.246,88.959" style="fill:none;stroke-width:0.050000mm;stroke:black"/>
<polygon points="43.221,88.043 42.433,87.904 41.919,90.819 42.707,90.958 41.676,96.807 40.888,96.669 40.374,99.584 41.162,99.722 40.988,100.707 54.638,103.114 54.811,102.129 55.599,102.268 56.113,99.353 55.325,99.214 56.357,93.364 57.144,93.503 57.658,90.588 56.871,90.449 57.044,89.465 43.395,87.058" style="fill:none;stroke-width:0.050000mm;stroke:black"/>
<polygon points="296.945,89.440 297.118,90.425 296.330,90.564 296.844,93.479 297.632,93.340 298.664,99.190 297.876,99.329 298.390,102.244 299.178,102.105 299.351,103.090 313.001,100.683 312.827,99.698 313.615,99.559 313.101,96.644 312.313,96.783 311.282,90.933 312.070,90.794 311.556,87.879 310.768,88.018 310.594,87.034" style="fill:none;stroke-width:0.050000mm;stroke:black"/>
<polygon points="62.809,86.660 62.021,86.522 61.507,89.437 62.295,89.576 61.263,95.425 60.475,95.286 59.961,98.201 60.749,98.340 60.576,99.325 74.225,101.732 74.399,100.747 75.187,100.886 75.701,97.971 74.913,97.832 75.944,91.982 76.732,92.121 77.246,89.206 76.458,89.067 76.632,88.082 62.982,85.676" style="fill:none;stroke-width:0.050000mm;stroke:black"/>
<polygon points="277.357,88.058 277.531,89.043 276.743,89.182 277.257,92.097 278.045,91.958 279.076,97.808 278.288,97.947 278.802,100.862 279.590,100.723 279.764,101.708 293.413,99.301 293.240,98.316 294.027,98.177 293.513,95.262 292.726,95.401 291.694,89.551 292.482,89.412 291.968,86.497 291.180,86.636 291.006,85.651" style="fill:none;stroke-width:0.050000mm;stroke:black"/>
<polygon points="24.461,84.735 23.673,84.596 23.159,87.511 23.947,87.650 22.915,93.499 22.127,93.361 21.613,96.276 22.401,96.414 22.227,97.399 35.877,99.806 36.051,98.821 36.838,98.960 37.352,96.045 36.565,95.906 37.596,90.056 38.384,90.195 38.898,87.280 38.110,87.141 38.284,86.157 24.634,83.750" style="fill:none;stroke-width:0.050000mm;stroke:black"/>
<polygon points="315.705,86.132 315.879,87.117 315.091,87.256 315.605,90.171 316.393,90.032 317.424,95.882 316.636,96.021 317.150,98.936 317.938,98.797 318.112,99.782 331.761,97.375 331.588,96.390 332.376,96.251 331.862,93.336 331.074,93.475 330.042,87.625 330.830,87.486 330.316,84.571 329.528,84.710 329.355,83.726" style="fill:none;stroke-width:0.050000mm;stroke:black"/>
<polygon points="121.985,80.169 121.197,80.030 120.683,82.945 121.471,83.084 120.440,88.934 119.652,88.795 119.138,91.710 119.926,91.849 119.752,92.834 133.401,95.240 133.575,94.256 134.363,94.394 134.877,91.479 134.089,91.341 135.120,85.491 135.908,85.630 136.422,82.715 135.634,82.576 135.808,81.591 122.159,79.184" style="fill:none;stroke-width:0.050000mm;stroke:black"/>
<polygon points="218.181,81.567 218.354,82.551 217.567,82.690 218.081,85.605 218.868,85.466 219.900,91.316 219.112,91.455 219.626,94.370 220.414,94.231 220.588,95.216 234.237,92.809 234.063,91.824 234.851,91.686 234.337,88.771 233.549,88.909 232.518,83.060 233.306,82.921 232.792,80.006 232.004,80.145 231.830,79.160" style="fill:none;stroke-width:0.050000mm;stroke:black"/>
<polygon points="103.638,74.516 102.850,74.377 102.336,77.292 103.124,77.431 102.092,83.281 101.305,83.142 100.791,86.057 101.578,86.196 101.405,87.181 115.054,89.587 115.228,88.602 116.016,88.741 116.530,85.826 115.742,85.687 116.773,79.838 117.561,79.977 118.075,77.062 117.287,76.923 117.461,75.938 103.812,73.531" style="fill:none;stroke-width:0.050000mm;stroke:black"/>
<polygon points="236.528,75.914 236.701,76.898 235.914,77.037 236.428,79.952 237.215,79.813 238.247,85.663 237.459,85.802 237.973,88.717 238.761,88.578 238.935,89.563 252.584,87.156 252.410,86.171 253.198,86.032 252.684,83.117 251.896,83.256 250.865,77.407 251.653,77.268 251.139,74.353 250.351,74.492 250.177,73.507" style="fill:none;stroke-width:0.050000mm;stroke:black"/>
<polygon points="179.591,74.816 179.591,75.816 178.791,75.816 178.791,78.776 179.591,78.776 179.591,84.716 178.791,84.716 178.791,87.676 179.591,87.676 179.591,88.676 193.451,88.676 193.451,87.676 194.251,87.676 194.251,84.716 193.451,84.716 193.451,78.776 194.251,78.776 194.251,75.816 193.451,75.816 193.451,74.816" style="fill:none;stroke-width:0.050000mm;stroke:black"/>
<polygon points="160.541,74.816 160.541,75.816 159.741,75.816 159.741,78.776 160.541,78.776 160.541,84.716 159.741,84.716 159.741,87.676 160.541,87.676 160.541,88.676 174.401,88.676 174.401,87.676 175.201,87.676 175.201,84.716 174.401,84.716 174.401,78.776 175.201,78.776 175.201,75.816 174.401,75.816 174.401,74.816" style="fill:none;stroke-width:0.050000mm;stroke:black"/>
<polygon points="84.877,71.208 84.090,71.069 83.576,73.984 84.363,74.123 83.332,79.973 82.544,79.834 82.030,82.749 82.818,82.888 82.644,83.873 96.294,86.279 96.467,85.294 97.255,85.433 97.769,82.518 96.981,82.379 98.013,76.530 98.801,76.669 99.315,73.754 98.527,73.615 98.700,72.630 85.051,70.223" style="fill:none;stroke-width:0.050000mm;stroke:black"/>
<polygon points="255.288,72.606 255.462,73.590 254.674,73.729 255.188,76.644 255.976,76.505 257.008,82.355 256.220,82.494 256.734,85.409 257.522,85.270 257.695,86.255 271.345,83.848 271.171,82.863 271.959,82.724 271.445,79.809 270.657,79.948 269.626,74.099 270.413,73.960 269.899,71.045 269.112,71.184 268.938,70.199" style="fill:none;stroke-width:0.050000mm;stroke:black"/>
<polygon points="46.529,69.282 45.741,69.143 45.227,72.058 46.015,72.197 44.984,78.047 44.196,77.908 43.682,80.823 44.470,80.962 44.296,81.947 57.946,84.353 58.119,83.369 58.907,83.508 59.421,80.593 58.633,80.454 59.665,74.604 60.452,74.743 60.966,71.828 60.179,71.689 60.352,70.704 46.703,68.297" style="fill:none;stroke-width:0.050000mm;stroke:black"/>
<polygon points="293.637,70.680 293.810,71.665 293.022,71.803 293.536,74.718 294.324,74.580 295.356,80.429 294.568,80.568 295.082,83.483 295.870,83.344 296.043,84.329 309.693,81.922 309.519,80.938 310.307,80.799 309.793,77.884 309.005,78.023 307.974,72.173 308.762,72.034 308.248,69.119 307.460,69.258 307.286,68.273" style="fill:none;stroke-width:0.050000mm;stroke:black"/>
<polygon points="66.117,67.900 65.329,67.761 64.814,70.676 65.603,70.815 64.570,76.665 63.783,76.526 63.269,79.441 64.057,79.580 63.884,80.565 77.533,82.971 77.707,81.986 78.495,82.125 79.009,79.210 78.221,79.071 79.252,73.222 80.040,73.361 80.554,70.446 79.766,70.307 79.940,69.322 66.290,66.915" style="fill:none;stroke-width:0.050000mm;stroke:black"/>
<polygon points="274.049,69.298 274.223,70.282 273.435,70.421 273.949,73.336 274.737,73.197 275.768,79.047 274.980,79.186 275.494,82.101 276.282,81.962 276.456,82.947 290.105,80.540 289.932,79.555 290.719,79.417 290.205,76.501 289.418,76.640 288.386,70.791 289.174,70.652 288.660,67.737 287.872,67.876 287.698,66.891" style="fill:none;stroke-width:0.050000mm;stroke:black"/>
<polygon points="27.769,65.974 26.981,65.835 26.467,68.750 27.255,68.889 26.223,74.739 25.435,74.600 24.921,77.515 25.709,77.654 25.535,78.639 39.185,81.045 39.359,80.061 40.146,80.200 40.660,77.285 39.873,77.146 40.904,71.296 41.692,71.435 42.206,68.520 41.418,68.381 41.592,67.396 27.942,64.989" style="fill:none;stroke-width:0.050000mm;stroke:black"/>
<polygon points="312.397,67.372 312.571,68.357 311.783,68.495 312.297,71.410 313.085,71.272 314.116,77.121 313.328,77.260 313.842,80.175 314.630,80.036 314.804,81.021 328.453,78.614 328.280,77.630 329.068,77.491 328.554,74.576 327.766,74.715 326.734,68.865 327.522,68.726 327.008,65.811 326.220,65.950 326.047,64.965" style="fill:none;stroke-width:0.050000mm;stroke:black"/>
<polygon points="331.158,64.064 331.331,65.049 330.544,65.187 331.058,68.102 331.845,67.964 332.877,73.813 332.089,73.952 332.603,76.867 333.391,76.728 333.565,77.713 347.214,75.306 347.040,74.322 347.828,74.183 347.314,71.268 346.526,71.407 345.495,65.557 346.283,65.418 345.769,62.503 344.981,62.642 344.807,61.657" style="fill:none;stroke-width:0.050000mm;stroke:black"/>
<polygon points="125.293,61.408 124.505,61.269 123.991,64.185 124.779,64.323 123.748,70.173 122.960,70.034 122.446,72.949 123.234,73.088 123.060,74.073 136.709,76.480 136.883,75.495 137.671,75.634 138.185,72.719 137.397,72.580 138.428,66.730 139.216,66.869 139.730,63.954 138.942,63.815 139.116,62.830 125.467,60.424" style="fill:none;stroke-width:0.050000mm;stroke:black"/>
<polygon points="214.873,62.806 215.046,63.791 214.259,63.930 214.773,66.845 215.560,66.706 216.592,72.556 215.804,72.695 216.318,75.610 217.106,75.471 217.280,76.455 230.929,74.049 230.755,73.064 231.543,72.925 231.029,70.010 230.241,70.149 229.210,64.299 229.998,64.160 229.484,61.245 228.696,61.384 228.522,60.399" style="fill:none;stroke-width:0.050000mm;stroke:black"/>
<polygon points="106.946,55.755 106.158,55.616 105.644,58.531 106.432,58.670 105.400,64.520 104.613,64.380 104.099,67.296 104.886,67.435 104.713,68.420 118.362,70.827 118.536,69.842 119.324,69.981 119.838,67.066 119.050,66.927 120.081,61.077 120.869,61.216 121.383,58.301 120.595,58.162 120.769,57.177 107.120,54.771" style="fill:none;stroke-width:0.050000mm;stroke:black"/>
<polygon points="233.220,57.153 233.393,58.138 232.606,58.277 233.120,61.192 233.907,61.053 234.939,66.903 234.151,67.041 234.665,69.957 235.453,69.818 235.627,70.802 249.276,68.396 249.102,67.411 249.890,67.272 249.376,64.356 248.588,64.496 247.557,58.646 248.345,58.507 247.831,55.592 247.043,55.731 246.869,54.746" style="fill:none;stroke-width:0.050000mm;stroke:black"/>
<polygon points="379.616,55.766 379.616,56.766 378.816,56.766 378.816,59.726 379.616,59.726 379.616,65.666 378.816,65.666 378.816,68.626 379.616,68.626 379.616,69.626 393.476,69.626 393.476,68.626 394.276,68.626 394.276,65.666 393.476,65.666 393.476,59.726 394.276,59.726 394.276,56.766 393.476,56.766 393.476,55.766" style="fill:none;stroke-width:0.050000mm;stroke:black"/>
<polygon points="179.591,55.766 179.591,56.766 178.791,56.766 178.791,59.726 179.591,59.726 179.591,65.666 178.791,65.666 178.791,68.626 179.591,68.626 179.591,69.626 193.451,69.626 193.451,68.626 194.251,68.626 194.251,65.666 193.451,65.666 193.451,59.726 194.251,59.726 194.251,56.766 193.451,56.766 193.451,55.766" style="fill:none;stroke-width:0.050000mm;stroke:black"/>
<polygon points="160.541,55.766 160.541,56.766 159.741,56.766 159.741,59.726 160.541,59.726 160.541,65.666 159.741,65.666 159.741,68.626 160.541,68.626 160.541,69.626 174.401,69.626 174.401,68.626 175.201,68.626 175.201,65.666 174.401,65.666 174.401,59.726 175.201,59.726 175.201,56.766 174.401,56.766 174.401,55.766" style="fill:none;stroke-width:0.050000mm;stroke:black"/>
<polygon points="88.185,52.447 87.398,52.308 86.884,55.223 87.671,55.362 86.640,61.212 85.852,61.073 85.338,63.988 86.126,64.127 85.952,65.112 99.602,67.519 99.775,66.534 100.563,66.673 101.077,63.758 100.289,63.619 101.321,57.769 102.109,57.908 102.623,54.993 101.835,54.854 102.008,53.869 88.359,51.463" style="fill:none;stroke-width:0.050000mm;stroke:black"/>
<polygon points="251.980,53.845 252.154,54.830 251.366,54.969 251.880,57.884 252.668,57.745 253.700,63.595 252.912,63.733 253.426,66.649 254.214,66.510 254.387,67.494 268.037,65.088 267.863,64.103 268.651,63.964 268.137,61.049 267.349,61.188 266.318,55.338 267.105,55.199 266.591,52.284 265.804,52.423 265.630,51.438" style="fill:none;stroke-width:0.050000mm;stroke:black"/>
<polygon points="49.837,50.521 49.049,50.383 48.535,53.298 49.323,53.437 48.292,59.286 47.504,59.147 46.990,62.062 47.778,62.201 47.604,63.186 61.254,65.593 61.427,64.608 62.215,64.746 62.729,61.832 61.941,61.693 62.973,55.843 63.760,55.982 64.273,53.067 63.487,52.928 63.660,51.943 50.011,49.537" style="fill:none;stroke-width:0.050000mm;stroke:black"/>
<polygon points="290.329,51.919 290.502,52.904 289.714,53.043 290.228,55.958 291.016,55.819 292.048,61.669 291.260,61.808 291.774,64.722 292.562,64.584 292.735,65.569 306.385,63.162 306.211,62.177 306.999,62.038 306.485,59.123 305.697,59.262 304.666,53.412 305.454,53.273 304.940,50.358 304.152,50.497 303.978,49.512" style="fill:none;stroke-width:0.050000mm;stroke:black"/>
<polygon points="69.425,49.139 68.637,49.000 68.123,51.915 68.911,52.054 67.879,57.904 67.091,57.765 66.577,60.680 67.365,60.819 67.192,61.804 80.841,64.210 81.015,63.226 81.803,63.365 82.317,60.450 81.529,60.311 82.560,54.461 83.348,54.600 83.862,51.685 83.074,51.546 83.248,50.561 69.598,48.155" style="fill:none;stroke-width:0.050000mm;stroke:black"/>
<polygon points="270.741,50.537 270.915,51.522 270.127,51.661 270.641,54.576 271.429,54.437 272.460,60.287 271.672,60.425 272.186,63.341 272.974,63.202 273.148,64.186 286.797,61.780 286.624,60.795 287.411,60.656 286.897,57.741 286.110,57.880 285.078,52.030 285.866,51.891 285.352,48.976 284.564,49.115 284.390,48.130" style="fill:none;stroke-width:0.050000mm;stroke:black"/>
<polygon points="31.077,47.213 30.289,47.075 29.775,49.990 30.563,50.129 29.531,55.978 28.743,55.839 28.229,58.754 29.017,58.893 28.843,59.878 42.493,62.285 42.667,61.300 43.454,61.439 43.968,58.524 43.181,58.385 44.212,52.535 45.000,52.674 45.514,49.759 44.726,49.620 44.900,48.635 31.250,46.229" style="fill:none;stroke-width:0.050000mm;stroke:black"/>
<polygon points="309.089,48.611 309.263,49.596 308.475,49.735 308.989,52.650 309.777,52.511 310.808,58.361 310.020,58.500 310.534,61.415 311.322,61.276 311.496,62.261 325.145,59.854 324.972,58.869 325.760,58.730 325.246,55.815 324.458,55.954 323.426,50.104 324.214,49.965 323.700,47.050 322.912,47.189 322.739,46.204" style="fill:none;stroke-width:0.050000mm;stroke:black"/>
<polygon points="327.850,45.303 328.023,46.288 327.236,46.427 327.750,49.342 328.537,49.203 329.569,55.053 328.781,55.192 329.295,58.107 330.083,57.968 330.257,58.953 343.906,56.546 343.732,55.561 344.520,55.422 344.006,52.507 343.218,52.646 342.187,46.796 342.975,46.657 342.461,43.742 341.673,43.881 341.499,42.896" style="fill:none;stroke-width:0.050000mm;stroke:black"/>
<polygon points="128.601,42.648 127.813,42.509 127.299,45.424 128.087,45.563 127.056,51.413 126.268,51.274 125.754,54.189 126.542,54.328 126.368,55.312 140.017,57.719 140.191,56.734 140.979,56.873 141.493,53.958 140.705,53.819 141.736,47.970 142.524,48.109 143.038,45.193 142.250,45.055 142.424,44.070 128.775,41.663" style="fill:none;stroke-width:0.050000mm;stroke:black"/>
<polygon points="211.565,44.045 211.738,45.030 210.951,45.169 211.465,48.084 212.252,47.945 213.284,53.795 212.496,53.934 213.010,56.849 213.798,56.710 213.972,57.695 227.621,55.288 227.447,54.303 228.235,54.164 227.721,51.249 226.933,51.388 225.902,45.539 226.690,45.400 226.176,42.485 225.388,42.623 225.214,41.639" style="fill:none;stroke-width:0.050000mm;stroke:black"/>
<polygon points="110.254,36.995 109.466,36.856 108.952,39.771 109.740,39.910 108.708,45.760 107.921,45.621 107.407,48.536 108.194,48.675 108.021,49.659 121.670,52.066 121.844,51.081 122.632,51.220 123.146,48.305 122.358,48.166 123.389,42.317 124.177,42.455 124.691,39.540 123.903,39.401 124.077,38.417 110.428,36.010" style="fill:none;stroke-width:0.050000mm;stroke:black"/>
<polygon points="229.912,38.392 230.085,39.377 229.298,39.516 229.812,42.431 230.599,42.292 231.631,48.142 230.843,48.281 231.357,51.196 232.145,51.057 232.319,52.042 245.968,49.635 245.794,48.650 246.582,48.511 246.068,45.596 245.280,45.735 244.249,39.885 245.037,39.747 244.523,36.832 243.735,36.970 243.561,35.986" style="fill:none;stroke-width:0.050000mm;stroke:black"/>
<polygon points="379.616,36.716 379.616,37.716 378.816,37.716 378.816,40.676 379.616,40.676 379.616,46.616 378.816,46.616 378.816,49.576 379.616,49.576 379.616,50.576 393.476,50.576 393.476,49.576 394.276,49.576 394.276,46.616 393.476,46.616 393.476,40.676 394.276,40.676 394.276,37.716 393.476,37.716 393.476,36.716" style="fill:none;stroke-width:0.050000mm;stroke:black"/>
<polygon points="91.493,33.687 90.706,33.548 90.192,36.463 90.979,36.602 89.948,42.452 89.160,42.313 88.646,45.228 89.434,45.367 89.260,46.351 102.910,48.758 103.083,47.773 103.871,47.912 104.385,44.997 103.597,44.858 104.629,39.009 105.417,39.147 105.931,36.232 105.143,36.093 105.316,35.109 91.667,32.702" style="fill:none;stroke-width:0.050000mm;stroke:black"/>
<polygon points="248.672,35.084 248.846,36.069 248.058,36.208 248.572,39.123 249.360,38.984 250.392,44.834 249.604,44.973 250.118,47.888 250.906,47.749 251.079,48.734 264.729,46.327 264.555,45.342 265.343,45.203 264.829,42.288 264.041,42.427 263.010,36.577 263.797,36.439 263.283,33.524 262.496,33.662 262.322,32.678" style="fill:none;stroke-width:0.050000mm;stroke:black"/>
<polygon points="53.145,31.761 52.357,31.622 51.843,34.537 52.631,34.676 51.600,40.526 50.812,40.387 50.298,43.302 51.086,43.441 50.912,44.426 64.562,46.832 64.734,45.847 65.523,45.986 66.037,43.071 65.249,42.932 66.281,37.083 67.068,37.222 67.582,34.307 66.795,34.168 66.968,33.183 53.319,30.776" style="fill:none;stroke-width:0.050000mm;stroke:black"/>
<polygon points="287.021,33.159 287.194,34.143 286.406,34.282 286.920,37.197 287.708,37.058 288.740,42.908 287.952,43.047 288.466,45.962 289.254,45.823 289.427,46.808 303.077,44.401 302.903,43.416 303.691,43.277 303.177,40.362 302.389,40.501 301.358,34.652 302.146,34.513 301.632,31.598 300.844,31.737 300.670,30.752" style="fill:none;stroke-width:0.050000mm;stroke:black"/>
<polygon points="72.733,30.379 71.945,30.240 71.431,33.155 72.219,33.294 71.187,39.144 70.399,39.005 69.885,41.920 70.673,42.059 70.500,43.043 84.149,45.450 84.323,44.465 85.111,44.604 85.625,41.689 84.837,41.550 85.868,35.701 86.656,35.839 87.170,32.924 86.382,32.785 86.556,31.801 72.906,29.394" style="fill:none;stroke-width:0.050000mm;stroke:black"/>
<polygon points="267.433,31.776 267.607,32.760 266.819,32.900 267.333,35.815 268.121,35.676 269.152,41.526 268.364,41.665 268.878,44.580 269.666,44.441 269.840,45.426 283.489,43.019 283.316,42.034 284.103,41.895 283.589,38.980 282.802,39.119 281.770,33.269 282.558,33.131 282.044,30.216 281.256,30.354 281.082,29.370" style="fill:none;stroke-width:0.050000mm;stroke:black"/>
<polygon points="34.385,28.453 33.597,28.314 33.083,31.229 33.871,31.368 32.839,37.218 32.050,37.079 31.537,39.994 32.324,40.133 32.151,41.118 45.801,43.524 45.975,42.539 46.762,42.678 47.276,39.763 46.489,39.624 47.520,33.775 48.308,33.914 48.822,30.999 48.034,30.860 48.208,29.875 34.558,27.468" style="fill:none;stroke-width:0.050000mm;stroke:black"/>
<polygon points="305.781,29.851 305.955,30.835 305.167,30.974 305.681,33.889 306.469,33.750 307.500,39.600 306.712,39.739 307.226,42.654 308.014,42.515 308.188,43.500 321.837,41.093 321.664,40.108 322.452,39.969 321.938,37.054 321.150,37.193 320.118,31.344 320.906,31.205 320.392,28.290 319.604,28.429 319.431,27.444" style="fill:none;stroke-width:0.050000mm;stroke:black"/>
<polygon points="400.336,7.807 399.673,8.145 399.146,8.672 398.808,9.335 398.692,10.071 398.808,10.806 399.146,11.469 399.673,11.996 400.336,12.334 401.072,12.451 401.807,12.334 402.470,11.996 402.997,11.469 403.335,10.806 403.452,10.071 403.335,9.335 402.997,8.672 402.470,8.145 401.807,7.807 401.072,7.690" style="fill:none;stroke-width:0.050000mm;stroke:black"/>
<polygon points="302.586,7.807 301.922,8.145 301.396,8.672 301.058,9.335 300.941,10.071 301.058,10.806 301.396,11.469 301.922,11.996 302.586,12.334 303.321,12.451 304.057,12.334 304.720,11.996 305.247,11.469 305.585,10.806 305.701,10.071 305.585,9.335 305.247,8.672 304.720,8.145 304.057,7.807 303.321,7.690" style="fill:none;stroke-width:0.050000mm;stroke:black"/>
<polygon points="204.836,7.807 204.172,8.145 203.646,8.672 203.307,9.335 203.191,10.071 203.307,10.806 203.646,11.469 204.172,11.996 204.836,12.334 205.571,12.451 206.306,12.334 206.970,11.996 207.496,11.469 207.835,10.806 207.951,10.071 207.835,9.335 207.496,8.672 206.970,8.145 206.306,7.807 205.571,7.690" style="fill:none;stroke-width:0.050000mm;stroke:black"/>
<polygon points="107.085,7.807 106.422,8.145 105.895,8.672 105.557,9.335 105.441,10.071 105.557,10.806 105.895,11.469 106.422,11.996 107.085,12.334 107.821,12.451 108.556,12.334 109.220,11.996 109.746,11.469 110.084,10.806 110.201,10.071 110.084,9.335 109.746,8.672 109.220,8.145 108.556,7.807 107.821,7.690" style="fill:none;stroke-width:0.050000mm;stroke:black"/>
<polygon points="9.335,7.807 8.672,8.145 8.145,8.672 7.807,9.335 7.691,10.070 7.807,10.806 8.145,11.469 8.672,11.996 9.335,12.334 10.071,12.450 10.806,12.334 11.469,11.996 11.996,11.469 12.334,10.806 12.451,10.070 12.334,9.335 11.996,8.672 11.469,8.145 10.806,7.807 10.071,7.690" style="fill:none;stroke-width:0.050000mm;stroke:black"/>
</svg>
